<svg width="200px" viewBox="100 25 500 500" xmlns="http://www.w3.org/2000/svg">
    <path
        d="M533.75 96.25H455v-70H245v70h-78.75v35h-70v70h17.5v332.5h472.5v-332.5h17.5v-70h-70zm-17.5 17.5v35H455v-35zm-253.75-70h175v175H385v-46.043A61.166 61.166 0 0 0 370.414 64.8l-11.664-4.129v53.078h-17.5V60.671l-11.664 4.14a61.146 61.146 0 0 0-33.332 28.349 61.14 61.14 0 0 0-5.864 43.363A61.16 61.16 0 0 0 315 172.707v46.043h-52.5zm65.625 116.59a43.651 43.651 0 0 1-21.793-35.211 43.65 43.65 0 0 1 17.418-37.57v43.688h52.5V87.559a43.65 43.65 0 0 1 17.418 37.57 43.651 43.651 0 0 1-21.793 35.211l-4.375 2.527v55.88h-35v-55.88zm-144.38-46.594h61.25v35h-61.25zm-70 35h52.5v17.5h17.5v17.5h-70zm70 367.5h-52.5v-315h52.5zm43.75 0v-227.5h113.75v227.5zm131.25 0v-227.5h113.75v227.5zm140 0h-8.75v-245h-280v245h-8.75v-350h43.75v70h210v-70h43.75zm70 0h-52.5v-315h52.5zm17.5-367.5v35h-70v-17.5h17.5v-17.5z" />
    <path d="M367.5 385H385v35h-17.5zM315 385h17.5v35H315z" />
</svg>