<svg width='170px' viewBox="100 25 500 500" xmlns="http://www.w3.org/2000/svg">
    <path
        d="M106.65 512.7h120.87a25.74 25.74 0 0 0 25.711-25.711v-1.492a25.657 25.657 0 0 0-8.562-19.141 26.195 26.195 0 0 0 5.03-6.293c2.743.312 5.5.472 8.262.476 1.188 0 2.372-.035 3.551-.09l.367-.015a72.812 72.812 0 0 0 3.598-.274h.024c.242-.023.488-.047.73-.074h-.004a26.307 26.307 0 0 0 5.57 6.793 25.672 25.672 0 0 0-9.109 19.613v1.492A25.74 25.74 0 0 0 288.4 513.7h120.86a25.744 25.744 0 0 0 25.715-25.715v-1.492c0-7.578-3.351-14.77-9.152-19.645a26.413 26.413 0 0 0 9.152-19.953 26.423 26.423 0 0 0-9.097-19.977 26.406 26.406 0 0 0 0-39.882c5.777-5.015 9.097-12.289 9.097-19.94s-3.32-14.927-9.097-19.942a26.43 26.43 0 0 0 9.097-19.754 26.411 26.411 0 0 0-8.812-19.883 25.655 25.655 0 0 0 8.812-19.352v-1.492a25.742 25.742 0 0 0-25.715-25.715H288.39a25.74 25.74 0 0 0-25.71 25.715v1.492c0 7.422 3.21 14.477 8.808 19.352a26.338 26.338 0 0 0-5.043 6.11c-19.801-2.332-39.695 3.472-55.137 16.082s-25.102 30.945-26.777 50.812h-77.137a26.443 26.443 0 0 0-17.36 46.398 26.404 26.404 0 0 0-9.094 19.597 26.382 26.382 0 0 0 8.578 19.828 25.66 25.66 0 0 0-8.582 19.152v1.493a25.74 25.74 0 0 0 25.711 25.71zm301.87-158.94c7.363 0 13.332 5.969 13.332 13.332s-5.969 13.332-13.332 13.332h-77.148a73.07 73.07 0 0 0-7.566-26.664zm-77.199 40.184c.012-.102.02-.203.031-.305l77.168.004c7.317.067 13.215 6.016 13.215 13.332s-5.898 13.27-13.215 13.336h-84.875a72.8 72.8 0 0 0 7.598-25.613c.027-.25.059-.5.078-.75zm-16.332 39.582h93.531c7.316.066 13.215 6.016 13.215 13.336 0 7.316-5.898 13.266-13.215 13.332H289.14a13.315 13.315 0 0 1-8.613-3.137 73.076 73.076 0 0 0 34.46-23.53zm106.86 54.457v.004c-.004 6.95-5.637 12.578-12.586 12.586h-120.87c-6.945-.008-12.578-5.64-12.586-12.586v-1.492c.008-6.95 5.64-12.578 12.586-12.586h120.87c6.95.004 12.582 5.636 12.59 12.586zm-133.45-187.23c-6.945-.008-12.578-5.64-12.586-12.59v-1.488c.008-6.95 5.64-12.578 12.586-12.586h120.87c6.95.008 12.582 5.636 12.59 12.586v1.492c-.008 6.95-5.64 12.578-12.59 12.586zm.746 13.125h119.38c7.316.066 13.215 6.016 13.215 13.332 0 7.316-5.898 13.27-13.215 13.336h-93.254a73.956 73.956 0 0 0-34.418-23.77 13.322 13.322 0 0 1 8.293-2.898zm-31.184 12.367a60.665 60.665 0 0 1 42.824 17.766 60.657 60.657 0 0 1 17.762 42.82 58.433 58.433 0 0 1-.117 3.602 53.636 53.636 0 0 1-.172 2.253l-.059.606a60.72 60.72 0 0 1-47.886 52.855l-.312.062c-.816.165-1.64.309-2.465.438-.344.055-.691.102-1.039.152-.664.094-1.328.18-1.996.254-.578.063-1.16.11-1.742.153-.489.039-.973.085-1.465.109a63.042 63.042 0 0 1-3.336.094h.004a60.587 60.587 0 0 1 0-121.172zm-150.56 67.398h77.176a73.077 73.077 0 0 0 7.75 26.668h-84.926c-7.316-.066-13.21-6.02-13.21-13.336s5.894-13.266 13.21-13.332zM94.07 446.862c.004-7.363 5.973-13.328 13.332-13.336h93.57a73.929 73.929 0 0 0 34.473 23.484 13.283 13.283 0 0 1-5.812 2.871 26.87 26.87 0 0 0-2.11-.094h-120.87c-.707 0-1.406.036-2.101.094a13.357 13.357 0 0 1-10.484-13.02zm13.332 26.457h119.38c1.012-.008 2.02-.07 3.023-.191a12.601 12.601 0 0 1 10.31 12.37v1.493c-.004 6.949-5.637 12.582-12.587 12.586h-120.87c-6.949-.008-12.578-5.637-12.586-12.586v-1.492a12.6 12.6 0 0 1 10.266-12.363c1.02.12 2.043.18 3.067.183z" />
    <path
        d="M258.09 417.8c-.047 0-.09-.008-.137-.008s-.09.008-.136.008c-6.801-.082-12.277-5.613-12.285-12.418 0-3.625-2.938-6.563-6.563-6.563s-6.562 2.938-6.562 6.563a25.583 25.583 0 0 0 5.304 15.566 25.638 25.638 0 0 0 13.68 9.125v5.59c0 3.625 2.938 6.562 6.563 6.562s6.562-2.937 6.562-6.562v-5.59a25.56 25.56 0 0 0 17.434-15.922 25.544 25.544 0 0 0-23.996-34.316 12.425 12.425 0 1 1 4.753-23.902 12.424 12.424 0 0 1 7.668 11.477c0 3.625 2.938 6.562 6.563 6.562s6.562-2.937 6.562-6.562a25.592 25.592 0 0 0-5.305-15.566 25.605 25.605 0 0 0-13.684-9.121v-4.73a6.564 6.564 0 0 0-6.562-6.563 6.567 6.567 0 0 0-6.563 6.562v4.73a25.548 25.548 0 0 0 6.563 50.239c6.824.011 12.359 5.527 12.395 12.352.039 6.82-5.434 12.398-12.258 12.488zM619.06 209.57v-1.492a25.74 25.74 0 0 0-25.711-25.711h-120.87a25.74 25.74 0 0 0-25.711 25.71v1.493a25.642 25.642 0 0 0 8.566 19.141 25.64 25.64 0 0 0-8.566 19.141v1.492a25.653 25.653 0 0 0 8.562 19.141 25.657 25.657 0 0 0-8.562 19.141v1.492a25.642 25.642 0 0 0 8.566 19.141 25.64 25.64 0 0 0-8.566 19.141v1.489a25.642 25.642 0 0 0 8.566 19.14 25.64 25.64 0 0 0-8.566 19.142v1.492a25.642 25.642 0 0 0 8.566 19.14 25.64 25.64 0 0 0-8.566 19.142v1.492a25.642 25.642 0 0 0 8.566 19.141 25.64 25.64 0 0 0-8.566 19.141v1.492a25.642 25.642 0 0 0 8.566 19.141 25.64 25.64 0 0 0-8.566 19.141v1.493a25.74 25.74 0 0 0 25.711 25.711h120.87a25.74 25.74 0 0 0 25.711-25.711v-1.493a25.656 25.656 0 0 0-8.566-19.14 25.64 25.64 0 0 0 8.566-19.142v-1.492a25.642 25.642 0 0 0-8.566-19.14 25.66 25.66 0 0 0 8.566-19.142v-1.492a25.636 25.636 0 0 0-8.566-19.141 25.647 25.647 0 0 0 8.566-19.141v-1.492a25.656 25.656 0 0 0-8.566-19.141 25.64 25.64 0 0 0 8.566-19.141v-1.492a25.656 25.656 0 0 0-8.566-19.141 25.654 25.654 0 0 0 8.566-19.141v-1.493a25.656 25.656 0 0 0-8.566-19.14 25.64 25.64 0 0 0 8.566-19.142v-1.488a25.642 25.642 0 0 0-8.566-19.141 25.66 25.66 0 0 0 8.566-19.141zm-13.125 276.92v1.492c-.008 6.946-5.637 12.578-12.586 12.586h-120.87c-6.95-.008-12.582-5.636-12.586-12.586v-1.492c.008-6.856 5.492-12.445 12.348-12.578.078 0 .16.008.238.008l120.87-.004c.078 0 .16 0 .239-.008v.004c6.851.133 12.34 5.723 12.348 12.578zm0-39.773v1.492c-.008 6.856-5.496 12.445-12.348 12.578-.078 0-.16-.008-.238-.008h-120.87c-.078 0-.16 0-.239.008-6.855-.133-12.34-5.722-12.348-12.578v-1.492c.004-6.848 5.485-12.438 12.332-12.578.086 0 .168.008.254.008h120.87c.086 0 .168-.008.254-.008h-.004c6.848.145 12.328 5.73 12.336 12.578zm0-39.773v1.492c-.008 6.848-5.488 12.438-12.336 12.578-.086 0-.168-.008-.254-.008h-120.86c-.086 0-.168 0-.254.008-6.848-.14-12.324-5.73-12.332-12.578v-1.492c.004-6.856 5.492-12.445 12.348-12.578H593.594c6.851.133 12.34 5.723 12.348 12.578zm0-39.773v1.492c-.008 6.856-5.496 12.445-12.348 12.578H472.24c-6.855-.133-12.34-5.723-12.348-12.578v-1.492c.008-6.848 5.485-12.438 12.332-12.578.086 0 .168.008.254.008h120.87c.086 0 .168 0 .254-.008h-.004c6.848.145 12.328 5.73 12.336 12.578zm0-39.773v1.492c-.008 6.848-5.488 12.438-12.336 12.578-.086 0-.168-.008-.254-.008h-120.86c-.086 0-.168.008-.254.008-6.848-.14-12.328-5.73-12.332-12.578v-1.492c.004-6.848 5.485-12.438 12.332-12.578.086 0 .168.008.254.008h120.87c.086 0 .168 0 .254-.008h-.004c6.852.14 12.328 5.73 12.336 12.582zm0-39.773v1.496c-.008 6.848-5.488 12.434-12.336 12.578-.086 0-.168-.008-.254-.008h-120.86c-.086 0-.168 0-.254.008-6.848-.144-12.324-5.73-12.332-12.578v-1.492c.004-6.852 5.485-12.438 12.332-12.578.086 0 .168.008.254.008l120.87-.004c.086 0 .168 0 .254-.008l-.004.004c6.848.14 12.328 5.726 12.336 12.578zm0-39.773v1.496c-.008 6.848-5.488 12.438-12.336 12.578-.086 0-.168-.008-.254-.008h-120.86c-.086 0-.168 0-.254.008-6.848-.14-12.328-5.73-12.332-12.578v-1.492c.004-6.852 5.488-12.441 12.34-12.578h121.362c6.848.137 12.332 5.726 12.34 12.578zm-12.586-25.711h-120.87c-.082 0-.164 0-.246.008-6.852-.14-12.332-5.727-12.34-12.578v-1.492c.004-6.95 5.637-12.582 12.586-12.59h120.87c6.95.007 12.582 5.644 12.586 12.594v1.492c-.008 6.851-5.492 12.44-12.34 12.578-.086-.004-.164-.012-.246-.012zM331.01 124.01a6.562 6.562 0 0 0-8.844-1.094l-191.18 137.29a6.564 6.564 0 0 0-1.504 9.16 6.567 6.567 0 0 0 9.16 1.5l186.25-133.76 61.712 73.043a6.559 6.559 0 0 0 9.019.961l153.62-118.47 20.941 24.078a6.56 6.56 0 0 0 11.496-3.847l3.883-55.672a6.56 6.56 0 0 0-6.09-7l-55.672-3.88v-.003a6.572 6.572 0 0 0-6.332 3.621 6.571 6.571 0 0 0 .922 7.234l22.223 25.555-148.04 114.16zm241.01-61.172-2.324 33.32L538.7 60.513z" />
</svg>